<?xml version="1.0" standalone="no"?>
<!DOCTYPE svg PUBLIC "-//W3C//DTD SVG 20010904//EN"
 "http://www.w3.org/TR/2001/REC-SVG-20010904/DTD/svg10.dtd">
<svg version="1.0" xmlns="http://www.w3.org/2000/svg"
 width="1200.000000pt" height="1200.000000pt" viewBox="0 0 1200.000000 1200.000000"
 preserveAspectRatio="xMidYMid meet">
<metadata>
Created by potrace 1.11, written by Peter Selinger 2001-2013
</metadata>
<g transform="translate(0.000000,1200.000000) scale(0.100000,-0.100000)"
fill="#000000" stroke="none">
<path d="M5709 9586 c-2 -2 -56 -7 -119 -10 -63 -4 -128 -9 -145 -10 -16 -2
-64 -7 -105 -11 -41 -4 -77 -8 -80 -10 -3 -2 -37 -6 -75 -10 -39 -3 -77 -8
-85 -10 -8 -3 -31 -7 -50 -10 -342 -56 -699 -155 -1025 -284 -84 -34 -446
-208 -455 -220 -3 -3 -30 -19 -60 -35 -72 -38 -316 -199 -405 -266 -310 -236
-610 -534 -849 -845 -42 -55 -84 -109 -92 -120 -78 -101 -260 -393 -385 -618
-157 -281 -363 -775 -487 -1167 -68 -212 -181 -637 -208 -776 -2 -11 -17 -85
-34 -165 -17 -79 -33 -157 -35 -174 -3 -16 -7 -41 -10 -55 -3 -14 -7 -38 -9
-55 -3 -16 -12 -70 -20 -120 -8 -49 -18 -110 -21 -135 -3 -25 -8 -56 -10 -70
-8 -59 -15 -108 -19 -145 -3 -22 -10 -76 -16 -120 -5 -44 -12 -107 -15 -140
-3 -33 -8 -78 -10 -100 -5 -47 -15 -162 -20 -225 -2 -25 -7 -94 -10 -155 -4
-60 -9 -130 -11 -155 -2 -25 -6 -196 -10 -380 -7 -367 -3 -410 46 -554 89
-258 323 -524 665 -754 54 -37 108 -72 120 -78 11 -6 58 -33 105 -60 170 -99
462 -233 670 -308 41 -15 84 -32 95 -36 55 -24 530 -171 595 -185 8 -2 89 -21
180 -43 91 -23 212 -51 270 -62 137 -29 140 -29 175 -36 17 -3 89 -16 160 -29
72 -13 153 -26 180 -30 28 -3 61 -8 75 -11 24 -5 65 -11 130 -19 19 -2 87 -11
150 -19 135 -18 188 -24 267 -31 32 -3 81 -7 108 -10 105 -11 143 -14 239 -20
55 -3 118 -8 140 -10 272 -27 1210 -27 1591 0 28 2 95 6 150 10 55 4 114 8
130 10 17 2 66 6 110 9 44 4 95 9 114 12 18 2 59 7 90 9 31 3 74 8 96 11 40 6
49 7 140 19 28 3 61 8 75 10 14 2 48 6 75 10 126 15 511 84 675 120 721 159
1347 378 1754 613 49 29 91 52 93 52 6 0 248 161 282 187 117 91 259 224 339
319 109 130 205 317 231 449 6 28 13 61 16 75 13 60 0 695 -20 938 -6 82 -16
205 -20 257 -2 28 -6 74 -9 103 -3 28 -8 76 -11 105 -6 57 -14 126 -20 172 -2
17 -9 68 -15 115 -17 138 -26 204 -34 245 -2 11 -9 52 -15 90 -21 129 -22 136
-62 341 -57 293 -91 432 -181 754 -59 208 -164 522 -238 705 -96 242 -250 571
-349 750 -72 128 -214 358 -293 470 -76 109 -235 319 -273 361 -5 7 -37 43
-69 80 -115 134 -394 401 -541 519 -408 327 -835 558 -1335 721 -91 30 -178
58 -195 63 -44 14 -234 59 -275 66 -19 3 -43 8 -52 11 -19 6 -41 10 -118 24
-125 22 -167 29 -210 34 -19 3 -57 7 -85 11 -27 3 -63 8 -80 10 -16 2 -68 7
-115 11 -47 3 -101 8 -120 11 -41 5 -716 13 -721 9z"/>
</g>
</svg>
